<svg width="80" height="70" viewBox="0 0 80 70" fill="none" xmlns="http://www.w3.org/2000/svg">
<g clip-path="url(#clip0_3497_22)">
<rect width="80" height="70" fill="white"/>
<rect width="80" height="80" fill="white"/>
<path fill-rule="evenodd" clip-rule="evenodd" d="M44.9754 61.3974H46.3646V60.3139H44.9754V61.3974ZM20.2788 66.5865L19.4095 64.9559H18.941V66.5865H16.9609V65.5286H17.3323V61.3718H16.9609V60.3139H18.941V63.7619H19.3984L20.4451 62.1993H21.9711V63.2572H21.717L20.8609 64.2203L21.7992 65.5286H22.0809V66.5865H20.2788ZM40.3807 66.5865L39.3171 63.2572H39.0079V62.1993H41.2834V63.2572H40.8785L41.4148 65.2737H41.7546L42.2909 63.2572H41.8862V62.1993H44.0011V63.2572H43.691L42.6528 66.5865H40.3807ZM44.5703 66.5865V65.5286H44.9417V63.2572H44.5703V62.1993H46.5502V65.5286H46.9218V66.5865H44.5703ZM24.2392 66.7056C23.8218 66.7056 23.5205 66.5816 23.3183 66.3268C23.1102 66.0644 23.0045 65.6908 23.0045 65.2167V63.2572H22.633V62.1993H24.6131V64.8175C24.6131 65.0474 24.6694 65.2243 24.7803 65.3436C24.8943 65.4665 25.0585 65.5286 25.2689 65.5286C25.4792 65.5286 25.6435 65.4665 25.7576 65.3438C25.8687 65.2243 25.925 65.0474 25.925 64.8175V63.2572H25.4691V62.1993H27.5336V65.5286H27.9049V66.5865H25.925V65.606L25.6277 65.9882C25.2522 66.4709 24.7981 66.7056 24.2392 66.7056ZM31.1099 63.2572C30.8996 63.2572 30.7351 63.3195 30.6213 63.4422C30.5103 63.5612 30.454 63.7382 30.454 63.9683V64.8175C30.454 65.0476 30.5103 65.2245 30.6215 65.3438C30.7351 65.4665 30.8996 65.5286 31.1099 65.5286C31.3203 65.5286 31.4847 65.4665 31.5985 65.3436C31.7094 65.2245 31.7658 65.0476 31.7658 64.8175V63.9683C31.7658 63.7382 31.7094 63.5612 31.5983 63.442C31.4847 63.3195 31.3203 63.2572 31.1099 63.2572ZM31.9286 66.7056C31.6749 66.7056 31.4479 66.6427 31.2538 66.5191C31.0486 66.3884 30.8798 66.2386 30.7515 66.0733L30.454 65.6906V66.5865H28.4739V65.5286H28.8452V61.3718H28.4739V60.3139H30.454V63.0952L30.7515 62.7124C30.8796 62.5474 31.0486 62.3974 31.2538 62.2667C31.4479 62.143 31.6751 62.0802 31.9286 62.0802C32.4486 62.0802 32.8272 62.2674 33.0866 62.6524C33.3559 63.0523 33.4926 63.6381 33.4926 64.3929C33.4926 65.1478 33.3559 65.7333 33.0866 66.1332C32.8272 66.5184 32.4486 66.7056 31.9286 66.7056ZM36.4105 62.9517C36.2001 62.9517 36.0359 63.0138 35.9219 63.1363C35.811 63.2555 35.7547 63.4327 35.7547 63.6624V63.9318H37.0666V63.6624C37.0666 63.4261 37.0096 63.247 36.8976 63.1301C36.7835 63.0116 36.6196 62.9517 36.4105 62.9517ZM36.4105 66.7056C35.6587 66.7056 35.0665 66.5078 34.6502 66.1175C34.2373 65.7307 34.0278 65.1504 34.0278 64.3929C34.0278 63.6354 34.2373 63.055 34.6502 62.6682C35.0665 62.278 35.6587 62.0802 36.4105 62.0802C37.1493 62.0802 37.6846 62.2705 38.0015 62.6456C38.3253 63.0287 38.4895 63.5139 38.4895 64.087V64.5313H35.7547V64.7495C35.7547 65.0118 35.8384 65.2114 36.0034 65.3434C36.1589 65.4681 36.3943 65.5286 36.723 65.5286C37.0735 65.5286 37.412 65.5021 37.7289 65.4499C37.9534 65.4128 38.1599 65.3681 38.3461 65.3158V66.3447C38.1668 66.4282 37.92 66.5065 37.61 66.5781C37.2437 66.6626 36.8403 66.7056 36.4105 66.7056ZM49.8397 63.2572C49.6295 63.2572 49.4651 63.3195 49.3511 63.442C49.24 63.5614 49.1837 63.7384 49.1837 63.9683V64.8175C49.1837 65.0474 49.24 65.2243 49.3509 65.3436C49.4651 65.4665 49.6295 65.5286 49.8397 65.5286C50.05 65.5286 50.2144 65.4665 50.3284 65.3436C50.4393 65.2243 50.4954 65.0474 50.4954 64.8175V63.9683C50.4954 63.7384 50.4393 63.5614 50.3284 63.4422C50.2144 63.3195 50.05 63.2572 49.8397 63.2572ZM49.8397 66.7056C49.0879 66.7056 48.4957 66.5078 48.0793 66.1175C47.6664 65.7309 47.457 65.1506 47.457 64.3929C47.457 63.6352 47.6664 63.0548 48.0793 62.6684C48.4957 62.278 49.0879 62.0802 49.8397 62.0802C50.6019 62.0802 51.1965 62.2805 51.6069 62.6752C52.0152 63.0678 52.2225 63.6458 52.2225 64.3929C52.2225 65.1504 52.0131 65.7307 51.6002 66.1175C51.1838 66.5078 50.5914 66.7056 49.8397 66.7056ZM54.3808 66.7056C53.9634 66.7056 53.6619 66.5816 53.4598 66.3268C53.2516 66.064 53.146 65.6906 53.146 65.2167V63.2572H52.7746V62.1993H54.7545V64.8175C54.7545 65.0474 54.8108 65.2243 54.9217 65.3436C55.0359 65.4665 55.2003 65.5286 55.4105 65.5286C55.6208 65.5286 55.7853 65.4665 55.8992 65.3436C56.0101 65.2243 56.0664 65.0474 56.0664 64.8175V63.2572H55.6107V62.1993H57.675V65.5286H58.0465V66.5865H56.0664V65.606L55.7691 65.9882C55.3936 66.4709 54.9397 66.7056 54.3808 66.7056ZM60.5001 66.7056C59.8531 66.7056 59.2199 66.6069 58.6155 66.4121V65.4435H59.6551C59.6785 65.6367 59.8006 65.9362 60.3313 65.9362C60.8929 65.9362 60.9535 65.5993 60.9535 65.4544C60.9535 65.2839 60.882 65.1473 60.7466 65.0591C60.6395 64.9897 60.4691 64.9345 60.2257 64.8905L59.8037 64.8142C59.0041 64.6706 58.6155 64.2302 58.6155 63.4672C58.6155 63.0273 58.7754 62.6965 59.1041 62.456C59.4446 62.2068 59.9173 62.0802 60.5087 62.0802C61.1381 62.0802 61.6806 62.1797 62.1232 62.3764V63.2828H61.1677C61.1461 63.1248 61.0646 63.0287 60.9949 62.9741C60.8896 62.8914 60.7428 62.8496 60.5593 62.8496C60.0282 62.8496 59.9709 63.1567 59.9709 63.2888C59.9709 63.4429 60.0382 63.568 60.1655 63.6504C60.2631 63.7135 60.4174 63.7667 60.6508 63.8176L61.1355 63.9117C61.5954 64.0001 61.9234 64.1608 62.1107 64.3891C62.3009 64.6208 62.3933 64.9137 62.3933 65.2846C62.3933 65.7488 62.2396 66.0912 61.9234 66.3316C61.5971 66.5797 61.1183 66.7056 60.5001 66.7056Z" fill="#1E1E1E"/>
<path fill-rule="evenodd" clip-rule="evenodd" d="M13.3333 39.1776C13.871 38.1368 14.8434 37.8046 16.1894 37.8063C32.1827 37.8269 48.1761 37.8182 64.1694 37.8174C65.4187 37.8174 66.3044 38.3018 66.5828 39.1368C66.8423 39.9145 66.4916 40.7711 65.633 41.1397C65.1834 41.3326 64.6187 41.4233 64.1053 41.4254C58.8669 41.4468 53.6284 41.4419 48.3899 41.4417C37.6135 41.4413 26.8374 41.4292 16.061 41.4509C14.7138 41.4535 13.7955 41.0742 13.3333 40.021V39.1776Z" fill="#1E1E1E"/>
<path fill-rule="evenodd" clip-rule="evenodd" d="M16.9778 56.9406V44.1843H62.3111V56.9144H45.7942C45.7448 55.8573 45.7789 54.7934 45.6307 53.7561C45.1749 50.5664 42.3838 48.4242 39.062 48.6416C36.1163 48.8344 33.6691 51.464 33.585 54.5415C33.5638 55.3171 33.5819 56.0937 33.5819 56.9406H16.9778Z" fill="#1E1E1E"/>
<path fill-rule="evenodd" clip-rule="evenodd" d="M77.3332 17.4452C76.1632 18.6976 75.0379 19.9959 73.8069 21.1854C73.035 21.9314 71.9221 21.7775 71.0982 20.9604C69.2503 19.1282 67.4134 17.2849 65.5724 15.4461C63.6073 13.4834 61.6436 11.5197 59.6775 9.5582C58.338 8.2219 58.3297 7.2621 59.6517 5.94122C60.2241 5.36929 60.7798 4.77933 61.3745 4.2314C61.849 3.79432 62.3711 3.40854 62.8721 3H63.9239C64.4465 3.41677 65.013 3.78924 65.4845 4.25732C69.0422 7.78692 72.5867 11.3298 76.119 14.8846C76.5718 15.3403 76.9307 15.8889 77.3332 16.3947V17.4452Z" fill="#1E1E1E"/>
<path fill-rule="evenodd" clip-rule="evenodd" d="M58.0155 33.0885L56.6853 34.3921L55.7105 32.7758C53.6244 29.3167 51.0471 26.5979 47.8318 24.4637L46.2173 23.392L47.5739 21.977C47.8816 21.6562 48.6226 20.878 49.5346 19.9194C46.7648 18.5195 43.5814 17.6765 40.0421 17.6675C28.8204 17.6386 20.6697 26.2091 18.6665 35.0017H61.3331C61.0401 33.6919 60.597 32.363 60.0133 31.0532C59.0868 32.007 58.3487 32.762 58.0155 33.0885Z" fill="#1E1E1E"/>
<path fill-rule="evenodd" clip-rule="evenodd" d="M68.4443 22.1383C67.9341 22.6431 67.4275 23.2181 66.8448 23.7023C66.1093 24.3135 65.3271 24.1719 64.577 23.621C63.618 24.5103 58.1929 29.8622 57.2043 30.7792C55.2784 27.7566 52.8238 25.2792 49.7776 23.3656C50.7217 22.4337 56.1301 17.0424 57.0396 16.1446C56.2034 14.8547 56.2714 14.2756 57.3143 13.2308C57.6935 12.8508 58.0662 12.4649 58.4126 12.1116C61.7772 15.4747 65.0944 18.7901 68.4443 22.1383Z" fill="#1E1E1E"/>
<path fill-rule="evenodd" clip-rule="evenodd" d="M42.4778 56.9406C42.4887 56.0843 42.5023 55.2625 42.4578 54.4456C42.3707 52.8418 41.2742 51.5859 39.9708 51.4821C38.5931 51.3723 37.2883 52.3415 37.1025 53.8817C36.982 54.8791 37.0249 55.9042 37.0529 56.9406H42.4778Z" fill="#1E1E1E"/>
</g>
<defs>
<clipPath id="clip0_3497_22">
<rect width="80" height="70" fill="white"/>
</clipPath>
</defs>
</svg>
