<svg width="993" height="837" xmlns="http://www.w3.org/2000/svg"><g fill="#000000" fill-rule="evenodd"><path d="M0 561.106c8.336-16.135 23.41-21.285 44.276-21.258 247.933.32 495.868.185 743.8.172 19.368 0 33.097 7.51 37.414 20.453 4.022 12.055-1.415 25.334-14.725 31.048-6.97 2.99-15.724 4.396-23.683 4.429-81.206.331-162.415.255-243.624.253-167.058-.007-334.114-.194-501.172.141-20.884.042-35.12-5.838-42.286-22.164v-13.074zm56.497 275.352v-197.74h702.77v197.334H503.218c-.767-16.387-.238-32.878-2.536-48.959-7.065-49.445-50.333-82.651-101.829-79.281-45.665 2.988-83.603 43.75-84.907 91.457-.328 12.023-.048 24.061-.048 37.189h-257.4zM992.146 224.22c-18.138 19.415-35.583 39.54-54.666 57.98-11.966 11.564-29.218 9.178-41.99-3.488-28.647-28.402-57.123-56.975-85.664-85.48-30.462-30.425-60.905-60.865-91.384-91.27-20.765-20.715-20.893-35.594-.4-56.07 8.874-8.865 17.489-18.01 26.707-26.504 7.357-6.775 15.45-12.756 23.217-19.089h16.306c8.101 6.461 16.882 12.235 24.193 19.49a32620.52 32620.52 0 01164.858 164.74c7.02 7.063 12.583 15.568 18.823 23.407v16.285zM692.678 466.716l-20.621 20.207-15.112-25.054c-32.339-53.622-72.292-95.768-122.137-128.85l-25.03-16.614 21.031-21.933c4.77-4.974 16.258-17.038 30.396-31.897-42.939-21.7-92.289-34.768-147.156-34.908-173.961-.448-300.316 132.408-331.37 268.705h661.43c-4.543-20.303-11.413-40.903-20.46-61.207-14.364 14.786-25.805 26.49-30.971 31.55"/><path d="M854.348 296.972c-7.909 7.824-15.763 16.738-24.795 24.243-11.403 9.475-23.528 7.28-35.157-1.26-14.866 13.786-98.968 96.749-114.294 110.963-29.856-46.855-67.907-85.259-115.13-114.922 14.636-14.445 98.477-98.018 112.577-111.935-12.962-19.996-11.908-28.972 4.26-45.17 5.877-5.889 11.655-11.872 17.025-17.349 52.16 52.134 103.583 103.527 155.514 155.43M451.809 836.458c.169-13.273.38-26.013-.309-38.676-1.352-24.862-18.35-44.33-38.555-45.94-21.357-1.701-41.584 13.324-44.465 37.199-1.868 15.46-1.203 31.351-.77 47.417h84.099z"/></g></svg>