<svg xmlns="http://www.w3.org/2000/svg" viewBox="0 0 50 45"  >

    <defs>
        <clipPath id="telescope-tube-clip">
            <path class="telescope-tube-clip-animated" d="M14.8,28c0.9-4.6,5-8,9.8-8c4.8,0,8.9,3.4,9.8,8l-0.1,12L50,40V0H0v40l14.8,0"/>
        </clipPath>
        <mask id="telescope-mask">
            <rect fill="#fff" x="0" y="0" width="100%" height="100%" />
            <rect class="telescope-mask-animated" fill="#000" x="20.4" y="8.5" width="8.3" height="18.4"/>
            <path fill="#fff" d="M24.6,20.8c-4.3,0-7.9,3.1-8.8,7.2h17.5C32.6,23.9,29,20.8,24.6,20.8z"/>
        </mask>
    </defs>


    <path d="M12,40v-7h24.9v7h-9.1c0-0.6,0-1.2-0.1-1.7c-0.3-1.8-1.8-2.9-3.6-2.8c-1.6,0.1-3,1.5-3,3.2c0,0.4,0,0.9,0,1.3H12z"/>
    <path d="M26,40c0-0.5,0-0.9,0-1.4c0-0.9-0.6-1.6-1.4-1.6c-0.8-0.1-1.5,0.5-1.6,1.3c-0.1,0.5,0,1.1,0,1.7H26z"/>
    <path d="M38.3,31.5H11c-0.5,0-1-0.4-1-1v0c0-0.5,0.4-1,1-1h27.2c0.5,0,1,0.4,1,1v0C39.3,31,38.8,31.5,38.3,31.5z"/>

    <g class="tube" clip-path="url(#telescope-tube-clip)">
        <g class="tube-wrapper" >
            <g class="tube-top">
                <ellipse fill="#4A90E2" cx="24.5" cy="6.6" rx="5" ry="0.9"></ellipse>
                <rect x="18.8" y="6.5" rx="1" ry="1" width="11.5" height="4.4"/>
            </g>
            <path class="tube-body" d="M20.7,12.6v1.1c0,0.6,0.5,1,1,1v7.6h5.8v-7.6c0.6,0,1-0.5,1-1.1v-1H20.7z"/>
        </g>
    </g>

    <path mask="url(#telescope-mask)" d="M24.6,18.4c-5.8,0-10.6,4.1-11.7,9.6h23.4C35.2,22.5,30.4,18.4,24.6,18.4z"/>
    <circle class="telescope-rotation-center" cx="24.5" cy="28" r="1" fill="transparent" />

    <path fill-rule="evenodd" clip-rule="evenodd" d="M27.4155 41.5528H28.1799V41H27.4155V41.5528ZM13.8257 44.2001L13.3474 43.3682H13.0896V44.2001H12V43.6604H12.2043V41.5397H12V41H13.0896V42.7591H13.3413L13.9172 41.9619H14.7569V42.5016H14.6171L14.146 42.993L14.6624 43.6604H14.8174V44.2001H13.8257ZM24.8871 44.2001L24.3019 42.5016H24.1317V41.9619H25.3839V42.5016H25.1611L25.4562 43.5303H25.6432L25.9383 42.5016H25.7156V41.9619H26.8794V42.5016H26.7087L26.1374 44.2001H24.8871ZM27.1926 44.2001V43.6604H27.3969V42.5016H27.1926V41.9619H28.2821V43.6604H28.4865V44.2001H27.1926ZM16.005 44.2609C15.7753 44.2609 15.6095 44.1976 15.4983 44.0676C15.3837 43.9338 15.3256 43.7431 15.3256 43.5013V42.5016H15.1212V41.9619H16.2108V43.2976C16.2108 43.4149 16.2417 43.5052 16.3027 43.566C16.3655 43.6287 16.4558 43.6604 16.5716 43.6604C16.6873 43.6604 16.7777 43.6287 16.8405 43.5661C16.9017 43.5052 16.9326 43.4149 16.9326 43.2976V42.5016H16.6818V41.9619H17.8178V43.6604H18.0221V44.2001H16.9326V43.6999L16.769 43.8949C16.5624 44.1411 16.3125 44.2609 16.005 44.2609ZM19.7857 42.5016C19.67 42.5016 19.5795 42.5334 19.5169 42.596C19.4558 42.6567 19.4248 42.747 19.4248 42.8644V43.2976C19.4248 43.415 19.4558 43.5053 19.517 43.5661C19.5795 43.6287 19.67 43.6604 19.7857 43.6604C19.9015 43.6604 19.992 43.6287 20.0546 43.566C20.1156 43.5053 20.1467 43.415 20.1467 43.2976V42.8644C20.1467 42.747 20.1156 42.6567 20.0545 42.5959C19.992 42.5334 19.9015 42.5016 19.7857 42.5016ZM20.2363 44.2609C20.0966 44.2609 19.9717 44.2288 19.8649 44.1657C19.752 44.099 19.6591 44.0226 19.5885 43.9383L19.4248 43.743V44.2001H18.3352V43.6604H18.5396V41.5397H18.3352V41H19.4248V42.4189L19.5885 42.2237C19.659 42.1394 19.752 42.063 19.8649 41.9962C19.9717 41.9332 20.0967 41.9011 20.2363 41.9011C20.5224 41.9011 20.7307 41.9966 20.8734 42.193C21.0216 42.397 21.0968 42.6959 21.0968 43.081C21.0968 43.4661 21.0216 43.7648 20.8734 43.9689C20.7307 44.1654 20.5224 44.2609 20.2363 44.2609ZM22.7025 42.3457C22.5867 42.3457 22.4963 42.3774 22.4336 42.4399C22.3726 42.5007 22.3416 42.5911 22.3416 42.7083V42.8457H23.0635V42.7083C23.0635 42.5878 23.0321 42.4964 22.9705 42.4367C22.9077 42.3763 22.8175 42.3457 22.7025 42.3457ZM22.7025 44.2609C22.2888 44.2609 21.9629 44.16 21.7338 43.9609C21.5066 43.7635 21.3914 43.4675 21.3914 43.081C21.3914 42.6945 21.5066 42.3984 21.7338 42.2011C21.9629 42.002 22.2888 41.9011 22.7025 41.9011C23.109 41.9011 23.4036 41.9982 23.5779 42.1896C23.7561 42.385 23.8465 42.6326 23.8465 42.9249V43.1516H22.3416V43.263C22.3416 43.3967 22.3877 43.4986 22.4785 43.5659C22.5641 43.6296 22.6936 43.6604 22.8745 43.6604C23.0673 43.6604 23.2536 43.6469 23.4279 43.6202C23.5515 43.6013 23.6651 43.5785 23.7676 43.5519V44.0768C23.6689 44.1193 23.5331 44.1593 23.3625 44.1958C23.161 44.239 22.939 44.2609 22.7025 44.2609ZM30.0921 42.5016C29.9765 42.5016 29.886 42.5334 29.8233 42.5959C29.7622 42.6568 29.7312 42.7471 29.7312 42.8644V43.2976C29.7312 43.4149 29.7622 43.5052 29.8232 43.566C29.886 43.6287 29.9765 43.6604 30.0921 43.6604C30.2079 43.6604 30.2984 43.6287 30.3611 43.566C30.4221 43.5052 30.453 43.4149 30.453 43.2976V42.8644C30.453 42.7471 30.4221 42.6568 30.3611 42.596C30.2984 42.5334 30.2079 42.5016 30.0921 42.5016ZM30.0921 44.2609C29.6785 44.2609 29.3526 44.16 29.1235 43.9609C28.8963 43.7636 28.781 43.4675 28.781 43.081C28.781 42.6944 28.8963 42.3984 29.1235 42.2012C29.3526 42.002 29.6785 41.9011 30.0921 41.9011C30.5116 41.9011 30.8388 42.0033 31.0646 42.2047C31.2893 42.405 31.4033 42.6998 31.4033 43.081C31.4033 43.4675 31.2881 43.7635 31.0609 43.9609C30.8318 44.16 30.5058 44.2609 30.0921 44.2609ZM32.591 44.2609C32.3613 44.2609 32.1954 44.1976 32.0842 44.0676C31.9696 43.9336 31.9115 43.743 31.9115 43.5013V42.5016H31.7071V41.9619H32.7966V43.2976C32.7966 43.4149 32.8276 43.5052 32.8886 43.566C32.9514 43.6287 33.0419 43.6604 33.1576 43.6604C33.2733 43.6604 33.3638 43.6287 33.4265 43.566C33.4875 43.5052 33.5185 43.4149 33.5185 43.2976V42.5016H33.2677V41.9619H34.4037V43.6604H34.6081V44.2001H33.5185V43.6999L33.3549 43.8949C33.1483 44.1411 32.8985 44.2609 32.591 44.2609ZM35.9582 44.2609C35.6022 44.2609 35.2538 44.2106 34.9212 44.1111V43.617H35.4932C35.5061 43.7156 35.5733 43.8684 35.8654 43.8684C36.1744 43.8684 36.2077 43.6965 36.2077 43.6226C36.2077 43.5356 36.1684 43.4659 36.0939 43.4209C36.0349 43.3855 35.9412 43.3573 35.8072 43.3349L35.575 43.2959C35.135 43.2227 34.9212 42.998 34.9212 42.6087C34.9212 42.3843 35.0092 42.2156 35.19 42.0929C35.3774 41.9657 35.6376 41.9011 35.9629 41.9011C36.3093 41.9011 36.6078 41.9519 36.8514 42.0522V42.5146H36.3256C36.3137 42.434 36.2688 42.385 36.2305 42.3572C36.1726 42.315 36.0918 42.2936 35.9908 42.2936C35.6986 42.2936 35.667 42.4503 35.667 42.5177C35.667 42.5963 35.7041 42.6602 35.7741 42.7022C35.8278 42.7344 35.9127 42.7615 36.0411 42.7875L36.3079 42.8355C36.561 42.8806 36.7414 42.9626 36.8445 43.079C36.9492 43.1973 37 43.3467 37 43.5359C37 43.7728 36.9154 43.9475 36.7414 44.0701C36.5619 44.1967 36.2984 44.2609 35.9582 44.2609Z" fill="black"/>

</svg>